<?xml version="1.0" standalone="no"?>
<!DOCTYPE svg PUBLIC "-//W3C//DTD SVG 20010904//EN"
 "http://www.w3.org/TR/2001/REC-SVG-20010904/DTD/svg10.dtd">
<svg version="1.0" xmlns="http://www.w3.org/2000/svg"
 width="801.000000pt" height="679.000000pt" viewBox="0 0 801.000000 679.000000"
 preserveAspectRatio="xMidYMid meet">

<g transform="translate(0.000000,679.000000) scale(0.100000,-0.100000)"
fill="#000000" stroke="none">
<path d="M0 3395 l0 -3395 88 0 c86 1 87 1 64 19 -12 11 -22 24 -22 30 0 5
-13 18 -30 28 -16 9 -30 21 -30 24 0 4 -10 9 -22 11 -17 2 -22 8 -19 23 4 19
4 86 0 148 -1 15 -5 27 -10 27 -4 0 -7 817 -6 1816 l2 1816 29 23 c26 21 40
23 130 23 56 0 119 -5 140 -11 30 -9 41 -8 44 1 6 20 49 14 55 -8 3 -11 10
-20 17 -20 7 0 9 8 5 20 -5 14 -2 20 9 20 9 0 16 -4 16 -10 0 -16 26 -12 41 6
11 14 15 13 30 -7 15 -20 19 -21 33 -10 13 11 19 11 31 1 13 -10 19 -10 35 5
18 16 19 16 32 -4 7 -12 21 -21 30 -21 10 0 18 -7 18 -15 0 -18 60 -21 90 -5
15 8 21 6 30 -10 6 -11 16 -18 21 -14 17 10 59 -5 59 -21 0 -9 13 -18 30 -21
17 -4 30 -12 30 -19 0 -14 42 -55 57 -55 6 0 20 -15 32 -33 12 -19 35 -38 56
-45 19 -8 33 -17 31 -21 -9 -13 52 -64 68 -58 8 3 26 -3 41 -15 25 -19 27 -19
45 -3 11 10 20 25 20 33 0 8 11 36 25 64 14 27 25 53 25 58 0 16 111 242 160
323 130 220 250 373 471 598 138 140 308 281 424 353 17 10 41 29 55 41 14 13
59 40 100 61 41 21 79 44 83 51 4 7 14 13 21 13 8 0 29 7 47 15 l34 15 -43 -6
c-46 -7 -118 -39 -115 -52 1 -4 -5 -6 -13 -4 -8 2 -17 -4 -20 -13 -8 -19 -44
-20 -44 -1 0 9 -7 12 -20 9 -14 -4 -20 0 -20 11 0 11 -9 16 -30 16 -35 0 -43
-29 -10 -37 38 -10 23 -33 -20 -31 -31 1 -40 5 -40 19 0 9 6 19 13 22 6 2 9 8
5 12 -4 4 -13 3 -20 -1 -7 -5 -22 -10 -33 -11 -11 -1 -32 -5 -47 -7 -21 -4
-28 -1 -34 17 -11 36 -56 90 -64 76 -5 -7 -16 -8 -31 -3 -31 10 -151 5 -165
-7 -8 -7 -13 0 -17 23 -6 43 -2 51 33 66 19 9 35 10 47 4 36 -19 110 -22 200
-8 73 11 106 22 160 53 104 59 171 163 161 249 -2 25 -7 29 -32 29 -25 0 -33
-8 -63 -65 -44 -83 -81 -121 -151 -155 -52 -25 -63 -27 -144 -23 -74 5 -95 10
-129 32 -49 33 -113 130 -129 194 -18 76 -23 250 -11 348 44 328 256 575 388
452 12 -12 36 -54 53 -95 29 -69 31 -84 32 -194 0 -102 -3 -124 -22 -163 -12
-26 -26 -46 -31 -46 -5 0 -9 -9 -9 -20 0 -28 45 -38 71 -15 45 42 77 233 59
359 -13 92 -55 195 -93 229 -69 61 -162 72 -248 30 -122 -60 -221 -206 -276
-408 -26 -93 -28 -113 -27 -290 0 -175 2 -195 23 -250 13 -33 30 -67 37 -76 8
-8 14 -19 14 -23 0 -4 16 -27 35 -51 30 -36 34 -46 26 -68 -14 -36 -26 -40
-39 -12 -14 30 -28 32 -42 5 -8 -16 -7 -27 7 -50 20 -34 15 -44 -17 -32 -20 8
-24 16 -25 58 -1 27 2 57 7 67 6 12 4 19 -8 24 -16 6 -37 -15 -28 -29 3 -4 0
-8 -6 -8 -6 0 -8 -10 -4 -25 7 -30 -14 -27 -34 5 -11 18 -10 20 10 20 22 1 22
1 -4 21 -35 26 -37 59 -5 59 31 0 34 4 29 40 -5 36 -41 43 -49 9 -8 -31 -47
-21 -51 13 -3 27 26 68 49 68 15 0 7 32 -9 38 -7 2 -16 -5 -19 -16 -6 -25 -33
-38 -33 -17 0 9 -9 23 -20 32 -11 10 -20 29 -20 44 0 15 -7 29 -15 33 -8 3
-15 15 -15 26 0 11 -4 20 -10 20 -5 0 -10 -8 -10 -17 0 -14 -3 -13 -23 5 -13
12 -31 22 -40 22 -9 0 -17 5 -17 10 0 6 -4 10 -10 10 -5 0 -10 -12 -10 -27 0
-27 -1 -27 -16 7 -9 19 -20 43 -25 52 -5 10 -9 27 -9 38 0 11 -6 23 -14 26 -8
3 -17 16 -20 30 -5 19 -11 23 -29 19 -18 -5 -26 0 -37 19 -7 14 -19 26 -27 26
-7 0 -13 6 -13 14 0 8 -7 16 -15 20 -8 3 -15 13 -15 23 -1 16 -2 16 -16 -2
-14 -19 -15 -19 -20 3 -7 26 -31 29 -37 5 -3 -10 -5 -3 -6 15 -1 21 -6 32 -16
32 -22 0 -18 15 8 33 22 15 22 15 2 24 -36 15 -95 55 -95 63 0 5 5 12 10 15
17 10 11 25 -10 25 -10 0 -24 9 -30 21 -7 12 -18 18 -26 15 -9 -3 -14 1 -14
14 0 11 -7 20 -15 20 -9 0 -15 9 -15 25 0 18 -4 23 -15 19 -8 -4 -27 -3 -41 0
-19 5 -24 11 -19 26 3 10 -3 41 -14 67 -11 26 -25 67 -31 91 -6 23 -15 42 -20
42 -16 0 -23 49 -10 65 6 7 10 26 8 42 -2 23 -7 27 -26 25 -20 -3 -23 0 -18
16 4 10 4 26 0 35 -5 14 -51 16 -415 17 l-409 1 0 -3396z m176 3373 c3 -4 -9
-8 -25 -8 -17 0 -31 -4 -31 -10 0 -5 16 -10 35 -10 19 0 35 -5 35 -11 0 -6
-10 -10 -22 -9 -44 4 -49 1 -42 -25 3 -14 3 -33 0 -42 -6 -15 -8 -15 -16 -3
-7 11 -11 9 -19 -11 -5 -15 -19 -29 -30 -32 -14 -3 -18 -11 -14 -25 2 -11 0
-23 -6 -26 -6 -4 -11 -20 -11 -37 0 -16 -4 -29 -10 -29 -6 0 -10 55 -10 144
l0 145 80 -1 c45 -1 83 -5 86 -10z m-63 -173 c3 -7 -3 -24 -14 -37 l-21 -23 6
25 c3 14 6 31 6 38 0 17 17 15 23 -3z m1457 -895 c0 -5 -7 -10 -16 -10 -8 0
-12 5 -9 10 3 6 10 10 16 10 5 0 9 -4 9 -10z m-150 -10 c0 -5 -7 -10 -15 -10
-8 0 -15 5 -15 10 0 6 7 10 15 10 8 0 15 -4 15 -10z m-4 -57 c-11 -11 -17 4
-9 23 7 18 8 18 11 1 2 -10 1 -21 -2 -24z m111 1 c-3 -3 -12 -4 -19 -1 -8 3
-5 6 6 6 11 1 17 -2 13 -5z m-86 -94 c19 0 29 -5 29 -15 0 -10 -11 -15 -35
-15 -32 0 -35 3 -34 28 0 15 3 21 6 15 2 -7 18 -13 34 -13z m26 -192 c-3 -8
-6 -5 -6 6 -1 11 2 17 5 13 3 -3 4 -12 1 -19z m480 -73 c1 -19 -3 -35 -8 -35
-10 0 -12 31 -3 54 9 23 10 20 11 -19z m-37 -35 c0 -5 -5 -10 -11 -10 -5 0 -7
5 -4 10 3 6 8 10 11 10 2 0 4 -4 4 -10z m264 -45 c-4 -8 -12 -15 -20 -15 -8 0
-14 7 -14 15 0 8 9 15 20 15 13 0 18 -5 14 -15z"/>
<path d="M906 6651 c-4 -7 -5 -15 -2 -18 9 -9 19 4 14 18 -4 11 -6 11 -12 0z"/>
<path d="M4715 6537 c-59 -29 -78 -48 -135 -140 -57 -91 -75 -75 -48 42 10 45
9 53 -7 71 -13 14 -29 20 -49 18 l-31 -3 -6 -280 c-10 -464 -9 -785 4 -834 15
-55 38 -72 65 -47 19 17 22 16 71 -8 88 -45 232 -31 323 32 165 114 291 452
275 742 -9 158 -43 253 -120 337 -54 59 -111 83 -212 89 -70 5 -86 2 -130 -19z
m203 -52 c52 -23 80 -51 112 -120 74 -155 62 -495 -24 -680 -84 -179 -198
-275 -326 -275 -59 0 -110 36 -142 100 -21 43 -22 56 -22 310 -1 300 5 335 75
470 87 168 212 242 327 195z"/>
<path d="M2681 6541 c-11 -7 -14 -102 -18 -505 -6 -622 3 -706 72 -706 11 0
29 6 39 13 20 15 21 10 -10 157 -15 72 -18 140 -18 450 0 234 4 386 12 425 26
135 26 131 3 154 -22 22 -56 27 -80 12z"/>
<path d="M5778 6519 c-10 -5 -18 -16 -18 -23 0 -24 -29 -39 -153 -80 -127 -43
-136 -50 -123 -101 10 -38 33 -37 125 10 49 25 99 46 112 47 l24 3 0 -310 c0
-261 -3 -323 -18 -394 -29 -134 -78 -211 -144 -227 -38 -10 -109 23 -141 64
-44 58 -52 86 -52 185 0 112 -13 164 -44 179 -31 13 -64 -4 -72 -38 -4 -14 -5
-64 -2 -112 3 -72 9 -98 36 -152 63 -130 151 -209 242 -218 73 -7 150 32 190
95 72 114 109 333 117 703 3 142 10 260 15 267 6 7 25 15 44 19 31 6 34 9 34
41 l0 36 -44 -6 c-30 -4 -54 -2 -73 8 -33 17 -33 17 -55 4z"/>
<path d="M3506 6458 c-3 -29 -8 -134 -11 -233 -3 -99 -10 -302 -16 -452 -9
-204 -9 -290 0 -349 13 -88 24 -106 60 -102 21 2 27 9 29 33 5 54 7 56 54 39
116 -41 182 -37 244 18 74 65 108 191 102 380 -3 97 -7 121 -29 169 -45 96
-104 147 -188 163 -50 9 -114 -23 -145 -73 -51 -80 -55 -52 -30 191 18 173 15
232 -12 253 -38 28 -52 19 -58 -37z m310 -445 c34 -37 54 -111 61 -225 9 -156
-34 -314 -97 -351 -73 -44 -148 -7 -191 93 -24 55 -28 79 -29 156 0 137 46
273 110 328 44 37 111 37 146 -1z"/>
<path d="M2898 6093 c-10 -2 -21 -15 -24 -27 -3 -13 -4 -146 -2 -297 3 -237 6
-279 21 -314 22 -49 63 -93 100 -110 39 -16 130 -1 184 31 53 31 59 30 78 -6
12 -23 22 -30 46 -30 46 0 51 27 47 255 -2 110 1 253 6 318 8 106 7 119 -9
137 -21 23 -63 26 -89 7 -16 -12 -17 -21 -10 -83 15 -114 0 -359 -25 -424 -28
-73 -78 -120 -128 -120 -52 1 -78 26 -103 101 -21 60 -22 80 -18 306 1 132 1
243 -2 246 -9 9 -54 15 -72 10z"/>
<path d="M2060 5320 c0 -5 5 -10 10 -10 6 0 10 5 10 10 0 6 -4 10 -10 10 -5 0
-10 -4 -10 -10z"/>
<path d="M2606 5253 c-12 -12 -5 -23 14 -23 11 0 20 4 20 9 0 11 -26 22 -34
14z"/>
<path d="M3700 5234 c-307 -33 -526 -88 -781 -198 -387 -166 -762 -460 -1006
-790 -54 -72 -104 -140 -110 -151 -166 -268 -247 -457 -317 -742 -31 -126 -40
-181 -65 -413 -23 -207 7 -544 70 -790 59 -228 202 -558 305 -703 19 -26 34
-49 34 -52 0 -7 135 -189 175 -235 63 -74 313 -316 355 -345 25 -16 47 -33 50
-36 3 -4 60 -43 128 -88 130 -87 319 -190 441 -241 152 -62 455 -140 644 -165
116 -16 392 -21 507 -10 137 13 247 28 268 36 13 5 36 9 52 9 16 0 31 4 34 9
3 4 22 11 42 14 42 7 273 78 354 109 169 65 458 231 595 342 156 126 332 300
422 417 32 41 60 76 63 79 4 3 34 46 67 95 262 393 398 823 420 1322 12 275
-48 638 -151 912 -200 534 -553 962 -1033 1255 -219 133 -396 206 -728 301
-129 36 -478 77 -645 74 -36 -1 -121 -7 -190 -15z m110 -210 c0 -31 23 -28 28
4 3 18 10 22 38 22 24 0 34 -5 34 -15 0 -9 9 -15 23 -15 32 -1 62 -22 62 -44
0 -11 6 -21 13 -23 7 -3 12 4 12 15 0 36 77 51 90 18 8 -20 8 -20 19 7 12 30
41 36 61 12 7 -8 19 -15 27 -15 9 0 13 6 9 15 -3 9 0 15 9 15 8 0 15 -12 17
-27 2 -22 9 -29 31 -31 19 -2 27 1 27 12 0 20 9 20 32 -1 13 -12 34 -16 73
-15 45 1 57 -2 71 -21 11 -15 18 -18 21 -9 6 14 33 16 33 2 0 -5 7 -10 15 -10
8 0 15 -7 15 -15 0 -8 9 -15 21 -15 11 0 18 4 15 8 -3 5 8 7 23 4 20 -3 27 -9
27 -25 -1 -19 5 -22 34 -22 34 0 35 -1 34 -37 -1 -44 11 -49 28 -13 14 30 22
31 55 5 14 -11 37 -20 51 -20 25 0 25 -1 7 -14 -19 -13 -18 -15 18 -32 24 -11
37 -25 37 -37 0 -18 -5 -19 -55 -13 -51 6 -55 5 -55 -14 0 -12 8 -32 17 -46
15 -24 15 -27 0 -54 -9 -15 -17 -43 -17 -62 l0 -33 -25 30 -25 30 -20 -24
c-11 -12 -17 -28 -13 -34 4 -6 0 -8 -8 -5 -22 8 -65 18 -51 12 6 -3 12 -12 12
-20 0 -8 5 -23 12 -33 10 -16 16 -17 42 -8 17 5 38 16 47 23 20 18 29 18 29
-1 0 -8 -7 -15 -16 -15 -24 0 -12 -35 14 -38 16 -2 22 -10 22 -27 0 -32 17
-41 39 -21 22 20 37 20 45 1 4 -10 -6 -18 -37 -26 -23 -6 -50 -15 -59 -20 -44
-23 -110 -1 -87 28 9 10 6 18 -12 33 -31 25 -59 25 -66 0 -3 -10 -13 -22 -22
-25 -22 -7 -45 -66 -30 -76 16 -10 2 -29 -22 -29 -12 0 -19 7 -19 20 0 14 -7
20 -22 20 -21 0 -21 -1 -6 -17 16 -15 16 -17 0 -30 -15 -11 -11 -12 28 -6 32
4 52 14 68 33 15 19 30 26 42 23 11 -3 18 -9 15 -13 -12 -19 -118 -70 -145
-70 -19 0 -29 -4 -25 -10 7 -12 -37 -4 -68 12 -10 5 -26 7 -35 4 -10 -4 -27 1
-38 9 -18 14 -18 14 11 15 42 0 11 20 -32 20 -33 0 -52 -14 -31 -24 7 -3 0 -2
-17 2 -16 4 -49 7 -72 7 -23 0 -40 2 -37 6 2 4 -18 15 -44 25 -63 25 -70 27
-52 15 13 -9 13 -12 -2 -28 -17 -16 -18 -16 -31 1 -10 13 -20 16 -36 11 -16
-5 -19 -10 -12 -19 7 -9 -2 -12 -36 -14 -25 -1 -51 -6 -57 -10 -6 -5 -28 -12
-48 -15 -33 -5 -38 -3 -38 14 0 10 -4 19 -10 19 -5 0 -9 -10 -7 -21 2 -19 -7
-24 -68 -39 -38 -9 -83 -25 -100 -34 -16 -9 -35 -16 -41 -16 -21 0 -39 -30
-28 -48 9 -13 29 -15 125 -14 l114 2 -29 -23 c-16 -12 -69 -55 -118 -95 -48
-40 -88 -68 -88 -63 0 16 -40 24 -55 11 -8 -6 -19 -9 -26 -5 -8 6 -8 2 0 -14
13 -24 36 -29 27 -6 -6 16 3 19 28 9 23 -9 20 -21 -9 -40 -24 -16 -27 -15 -44
0 -18 16 -20 16 -40 -10 -11 -15 -21 -31 -21 -35 0 -5 -10 -8 -22 -7 -13 0
-34 -1 -48 -4 -14 -3 -19 -3 -12 -1 7 3 11 10 9 16 -5 16 -53 15 -50 0 2 -7
-2 -13 -9 -13 -6 0 -19 -7 -28 -15 -10 -9 -31 -20 -49 -25 -25 -7 -31 -6 -31
6 0 8 6 17 14 20 8 3 12 13 9 23 -4 16 -9 17 -34 8 -16 -6 -29 -17 -29 -25 0
-7 -5 -22 -11 -33 -10 -20 -11 -20 -30 -3 -18 16 -19 16 -19 -3 0 -13 -8 -23
-21 -26 -15 -4 -20 -11 -16 -21 4 -11 1 -16 -11 -16 -10 0 -27 -7 -38 -15 -12
-9 -32 -12 -55 -8 -22 3 -39 1 -43 -6 -4 -7 1 -11 13 -11 30 0 26 -19 -6 -31
-22 -8 -25 -12 -13 -20 12 -8 10 -10 -7 -6 -14 3 -33 -3 -47 -14 l-25 -20 -17
26 c-9 14 -24 25 -33 25 -12 0 -13 -2 -3 -9 8 -5 12 -21 10 -37 -2 -22 -8 -29
-23 -27 -13 1 -24 -6 -30 -20 -6 -12 -17 -22 -25 -23 -45 -2 -153 -17 -209
-30 -104 -23 -297 -107 -401 -175 -25 -16 -52 -32 -60 -36 -8 -3 -34 -23 -58
-42 -177 -146 -212 -191 -212 -272 0 -42 6 -58 30 -89 31 -39 90 -68 111 -54
8 5 9 -5 4 -35 -4 -23 -8 -48 -9 -56 -1 -8 -10 -21 -20 -28 -9 -7 -17 -17 -16
-22 5 -22 -1 -27 -15 -15 -21 17 -38 4 -25 -21 8 -13 7 -19 0 -19 -7 0 -9 -8
-5 -20 5 -15 0 -22 -19 -30 -14 -5 -30 -18 -36 -30 -6 -11 -20 -20 -30 -20
-16 0 -20 -7 -20 -30 0 -31 -19 -43 -21 -12 0 11 -5 6 -14 -13 -9 -21 -15 -25
-18 -15 -3 8 -9 24 -13 35 -7 19 -8 18 -12 -5 -7 -42 -22 -47 -22 -7 0 20 -7
70 -17 112 -13 59 -14 81 -5 101 15 31 15 64 2 64 -15 0 -12 67 3 73 8 4 7 6
-3 6 -22 1 -37 -11 -43 -34 -3 -11 -4 -1 -2 22 1 24 7 48 13 55 5 7 8 37 6 66
-4 48 -2 54 16 59 23 6 27 23 5 23 -9 0 -12 6 -9 15 4 8 11 12 17 8 6 -4 7 4
2 23 -15 50 -6 152 17 190 14 24 18 44 14 67 -6 35 0 50 26 60 11 4 20 22 24
46 3 22 13 42 20 45 8 3 14 16 14 30 0 14 5 28 11 32 6 3 8 17 4 31 -3 14 -1
31 6 39 9 11 9 14 0 14 -7 0 1 11 16 24 22 20 26 27 16 37 -19 19 -16 29 8 29
11 0 17 5 14 10 -3 6 -1 10 6 10 8 0 9 10 5 30 -5 27 -2 32 21 41 19 7 24 12
15 18 -10 6 -7 15 12 38 14 17 26 40 26 51 0 22 48 102 62 102 4 0 8 7 8 15 0
9 11 21 25 27 17 8 24 17 20 29 -3 10 5 29 20 47 14 16 25 35 25 40 0 6 12 12
28 14 19 2 27 9 27 23 0 29 42 72 57 57 18 -18 28 -15 28 8 0 22 44 70 65 70
10 0 15 10 15 28 1 32 24 67 39 57 6 -3 11 -2 11 3 0 26 73 82 108 82 12 0 13
3 4 12 -20 20 -14 35 18 48 18 8 30 20 30 31 0 11 7 19 15 19 8 0 15 6 15 13
1 7 6 4 15 -7 14 -19 35 -14 35 9 0 7 -6 15 -12 18 -10 4 -10 7 0 18 9 9 12
10 12 1 0 -20 31 -14 65 13 18 13 35 22 38 18 4 -3 14 -2 24 1 15 6 15 8 3 16
-12 8 -9 10 10 10 32 0 55 15 46 29 -4 6 5 13 21 17 15 3 33 7 39 9 6 2 16 -1
22 -7 15 -15 32 -1 32 28 0 14 6 24 14 24 8 0 17 9 21 19 4 12 12 18 21 14 8
-3 25 2 39 11 13 9 38 18 55 19 16 2 39 12 49 21 23 21 41 14 41 -16 0 -20 1
-20 20 -3 11 10 22 33 26 51 5 30 10 34 36 34 22 0 31 -6 35 -20 7 -27 27 -20
31 11 6 39 22 47 22 11 0 -22 5 -32 15 -32 10 0 15 10 15 28 0 21 2 24 10 12
9 -13 14 -11 33 13 24 29 74 39 64 12 -4 -8 -2 -17 4 -20 5 -4 12 1 15 9 8 20
21 20 41 1 14 -14 17 -14 32 -1 9 8 30 18 46 22 17 4 36 11 43 17 9 7 17 6 28
-4 14 -15 84 -14 84 1 0 4 10 5 23 3 14 -3 33 4 47 16 33 27 40 26 40 -5z
m-285 -14 c3 -5 1 -10 -4 -10 -6 0 -11 5 -11 10 0 6 2 10 4 10 3 0 8 -4 11
-10z m865 -10 c0 -5 -2 -10 -4 -10 -3 0 -8 5 -11 10 -3 6 -1 10 4 10 6 0 11
-4 11 -10z m574 -255 c11 -8 16 -18 12 -22 -3 -4 -16 3 -28 15 -25 25 -13 29
16 7z m113 -51 c-3 -3 -12 -4 -19 -1 -8 3 -5 6 6 6 11 1 17 -2 13 -5z m48 -44
c3 -6 3 -19 0 -30 -6 -18 -8 -18 -22 -5 -8 9 -12 22 -9 30 6 17 22 20 31 5z
m-215 -130 c6 -10 9 -23 9 -27 -1 -4 1 -16 6 -27 5 -12 3 -21 -6 -27 -29 -18
-48 -9 -58 29 -14 48 -14 59 2 65 24 10 36 7 47 -13z m307 -135 c-7 -17 -42
-21 -52 -5 -4 6 5 10 19 10 14 0 26 5 26 12 0 6 3 9 6 5 4 -3 4 -13 1 -22z
m-135 3 c-9 -9 -15 -9 -24 0 -9 9 -7 12 12 12 19 0 21 -3 12 -12z m-209 -5
c-7 -2 -19 -2 -25 0 -7 3 -2 5 12 5 14 0 19 -2 13 -5z m151 -8 c-6 -16 -34
-21 -34 -7 0 13 11 22 26 22 8 0 11 -6 8 -15z m286 -96 c0 -5 -17 -17 -37 -25
-75 -29 -133 -58 -133 -64 0 -4 19 -10 43 -14 77 -13 216 -65 289 -109 76 -47
94 -67 58 -67 -21 0 -22 -1 -6 -22 111 -156 187 -298 222 -418 17 -57 19 -95
17 -325 l-1 -260 -43 -37 c-47 -41 -45 -43 33 -51 27 -2 55 -10 63 -17 18 -15
20 -69 3 -102 -21 -40 -108 -158 -117 -158 -5 0 -14 35 -22 78 l-14 77 -6
-150 c-9 -205 -36 -305 -130 -473 -35 -63 -163 -182 -239 -221 -115 -59 -304
-103 -527 -121 -313 -25 -625 62 -800 223 l-32 30 20 50 c33 83 58 206 62 302
l4 90 36 20 c60 35 77 56 98 126 25 82 15 133 -32 173 -39 33 -74 42 -121 29
-42 -11 -50 -6 -63 37 -17 60 -99 191 -161 258 -37 41 -102 97 -143 125 -42
28 -79 54 -82 59 -22 34 9 253 43 302 12 17 42 55 66 84 25 29 43 55 40 57 -2
3 -19 1 -36 -4 -17 -5 -34 -6 -37 -1 -5 9 137 147 197 190 20 15 84 53 142 86
58 32 106 62 106 65 0 8 -38 19 -67 19 -37 0 -26 17 15 24 114 18 320 -4 482
-54 84 -26 104 -25 143 4 120 89 299 152 537 189 54 9 130 7 130 -4z m437
-391 c-3 -8 -6 -5 -6 6 -1 11 2 17 5 13 3 -3 4 -12 1 -19z m33 -48 c0 -5 -2
-10 -4 -10 -3 0 -8 5 -11 10 -3 6 -1 10 4 10 6 0 11 -4 11 -10z m82 -412 c-9
-9 -12 -7 -12 12 0 19 3 21 12 12 9 -9 9 -15 0 -24z m-2512 -78 c122 -74 183
-122 263 -205 101 -104 178 -223 216 -336 19 -55 19 -56 -1 -88 -11 -17 -17
-31 -14 -31 4 0 30 14 59 30 99 55 178 35 177 -45 -2 -69 -41 -110 -152 -154
-28 -11 -28 -11 -28 -109 0 -143 -35 -306 -80 -372 -9 -14 -19 -32 -23 -40
-14 -37 -101 -131 -163 -179 -193 -145 -430 -209 -729 -198 -126 5 -172 12
-285 41 -163 42 -234 73 -330 145 -150 113 -255 308 -289 538 -12 78 -15 342
-5 415 6 41 10 47 49 66 42 20 186 109 195 121 3 3 27 23 53 45 26 21 47 40
45 42 -2 2 -40 -8 -83 -22 -105 -34 -225 -43 -260 -20 -29 19 -33 60 -10 94
43 61 241 172 409 229 217 74 431 103 726 99 l156 -2 104 -64z m2531 -27 c-9
-15 -10 -12 -10 17 0 29 1 32 10 18 7 -12 7 -24 0 -35z m-4301 -323 c0 -5 -4
-10 -10 -10 -5 0 -10 5 -10 10 0 6 5 10 10 10 6 0 10 -4 10 -10z m30 -486 c0
-8 -5 -12 -10 -9 -6 4 -8 11 -5 16 9 14 15 11 15 -7z m4111 -144 c5 -25 31
-87 56 -137 39 -78 47 -104 50 -165 9 -140 -38 -262 -148 -382 -129 -141 -371
-259 -618 -302 -46 -8 -88 -13 -94 -11 -11 3 -11 38 -1 239 l6 117 42 6 c81
12 213 57 306 103 165 81 287 227 333 397 28 102 47 185 48 213 2 25 2 25 6
-3 2 -16 8 -50 14 -75z m-3794 -172 c6 -40 12 -80 14 -88 6 -22 -39 -25 -62
-4 -12 10 -19 30 -19 51 0 34 34 113 48 113 5 0 13 -33 19 -72z m2033 -232
c99 -134 316 -236 543 -253 l99 -8 -1 -164 c-1 -90 -4 -168 -7 -173 -22 -35
-470 37 -614 100 -68 29 -114 87 -144 179 -32 103 -44 214 -24 234 8 8 34 42
57 77 24 34 44 62 47 62 2 0 21 -24 44 -54z m920 -557 c5 -79 12 -200 15 -269
3 -69 8 -135 11 -148 7 -34 -13 -35 -96 -6 -41 14 -94 30 -118 35 -23 6 -46
18 -51 27 -9 19 43 452 59 489 8 19 18 22 82 25 40 2 77 0 81 -3 4 -3 12 -71
17 -150z m-1647 25 c10 -32 24 -86 31 -119 8 -33 28 -116 46 -184 30 -119 31
-125 14 -138 -10 -7 -24 -13 -31 -13 -8 0 -32 -9 -55 -21 -29 -15 -43 -17 -48
-9 -4 6 -17 79 -29 163 -12 84 -28 193 -35 242 -11 68 -11 93 -3 104 14 17 68
41 82 37 5 -1 18 -29 28 -62z"/>
<path d="M3660 4974 c0 -9 5 -14 12 -12 18 6 21 28 4 28 -9 0 -16 -7 -16 -16z"/>
<path d="M3175 4930 c-3 -5 -1 -10 4 -10 6 0 11 5 11 10 0 6 -2 10 -4 10 -3 0
-8 -4 -11 -10z"/>
<path d="M4345 4900 c-3 -5 -2 -10 3 -10 5 0 12 -10 16 -22 5 -22 6 -22 23 -6
16 17 16 19 -2 33 -24 17 -32 18 -40 5z"/>
<path d="M4800 4780 c0 -13 18 -22 24 -11 3 5 -1 11 -9 15 -8 3 -15 1 -15 -4z"/>
<path d="M4710 4682 c0 -32 -5 -54 -15 -62 -8 -7 -15 -16 -15 -21 0 -14 58
-11 63 4 4 10 6 10 6 0 1 -7 8 -13 16 -13 17 0 39 72 30 100 -6 20 -35 28 -35
10 0 -5 -7 -10 -15 -10 -8 0 -15 6 -15 14 0 8 -4 18 -10 21 -6 4 -10 -13 -10
-43z"/>
<path d="M4645 4680 c3 -5 15 -10 26 -10 10 0 19 5 19 10 0 6 -12 10 -26 10
-14 0 -23 -4 -19 -10z"/>
<path d="M4196 4652 c-2 -4 -1 -14 5 -22 7 -12 9 -10 9 8 0 23 -5 28 -14 14z"/>
<path d="M4330 4626 c0 -30 15 -42 24 -20 10 27 7 44 -9 44 -9 0 -15 -9 -15
-24z"/>
<path d="M4200 4605 c0 -5 5 -17 10 -25 5 -8 10 -10 10 -5 0 6 -5 17 -10 25
-5 8 -10 11 -10 5z"/>
<path d="M2496 4551 c-4 -7 -5 -15 -2 -18 9 -9 19 4 14 18 -4 11 -6 11 -12 0z"/>
<path d="M4467 4553 c-11 -10 -8 -63 3 -63 6 0 10 -9 10 -19 0 -31 20 -36 38
-10 23 32 21 44 -5 42 -30 -3 -50 22 -33 42 12 14 0 22 -13 8z"/>
<path d="M4610 4550 c0 -5 5 -10 10 -10 6 0 10 5 10 10 0 6 -4 10 -10 10 -5 0
-10 -4 -10 -10z"/>
<path d="M4240 4500 c0 -5 4 -10 9 -10 6 0 13 5 16 10 3 6 -1 10 -9 10 -9 0
-16 -4 -16 -10z"/>
<path d="M4610 4406 c0 -9 5 -16 10 -16 6 0 10 4 10 9 0 6 -4 13 -10 16 -5 3
-10 -1 -10 -9z"/>
<path d="M4201 4354 c0 -11 3 -14 6 -6 3 7 2 16 -1 19 -3 4 -6 -2 -5 -13z"/>
<path d="M4502 4350 c-24 -20 -26 -28 -12 -50 7 -12 13 -11 34 10 15 13 26 29
26 36 0 20 -25 23 -48 4z"/>
<path d="M4410 4335 c0 -15 4 -24 10 -20 6 3 10 12 10 20 0 8 -4 17 -10 20 -6
4 -10 -5 -10 -20z"/>
<path d="M4450 4280 c-13 -8 -13 -10 2 -10 9 0 20 5 23 10 8 13 -5 13 -25 0z"/>
<path d="M3820 4260 c0 -5 5 -10 10 -10 6 0 10 5 10 10 0 6 -4 10 -10 10 -5 0
-10 -4 -10 -10z"/>
<path d="M3436 4251 c-7 -11 22 -23 35 -15 5 3 9 9 9 15 0 12 -37 12 -44 0z"/>
<path d="M3918 4243 c7 -3 16 -2 19 1 4 3 -2 6 -13 5 -11 0 -14 -3 -6 -6z"/>
<path d="M4487 4233 c-12 -11 -8 -23 8 -23 8 0 15 7 15 15 0 16 -12 20 -23 8z"/>
<path d="M3410 4190 c0 -5 7 -10 16 -10 8 0 12 5 9 10 -3 6 -10 10 -16 10 -5
0 -9 -4 -9 -10z"/>
<path d="M3595 4040 c-3 -5 -1 -10 4 -10 6 0 11 5 11 10 0 6 -2 10 -4 10 -3 0
-8 -4 -11 -10z"/>
<path d="M3620 3966 c0 -9 7 -16 16 -16 17 0 14 22 -4 28 -7 2 -12 -3 -12 -12z"/>
<path d="M3235 3893 c11 -3 23 -10 27 -16 4 -6 10 -8 15 -4 10 11 -17 27 -42
26 l-20 -1 20 -5z"/>
<path d="M3110 3850 c0 -5 7 -10 15 -10 8 0 15 5 15 10 0 6 -7 10 -15 10 -8 0
-15 -4 -15 -10z"/>
<path d="M2665 3500 c-3 -5 1 -10 10 -10 9 0 13 5 10 10 -3 6 -8 10 -10 10 -2
0 -7 -4 -10 -10z"/>
<path d="M4893 3503 c-12 -49 -27 -117 -33 -153 -18 -98 -15 -96 -127 -104
-294 -20 -583 -68 -748 -126 -49 -17 -98 -34 -107 -37 -31 -10 -19 -24 15 -18
287 49 697 93 882 96 147 2 135 -10 135 135 0 74 4 124 10 124 13 0 18 -27 24
-133 3 -48 7 -91 10 -96 3 -4 70 -14 148 -20 265 -22 385 -50 473 -111 24 -17
48 -30 53 -30 5 0 15 -7 22 -15 7 -8 16 -15 21 -15 34 0 -36 109 -96 150 -72
49 -151 65 -530 108 l-60 7 -12 103 c-11 95 -36 196 -52 215 -4 4 -17 -32 -28
-80z"/>
<path d="M5028 3056 c-28 -21 -24 -79 6 -95 48 -26 97 20 77 73 -14 36 -52 46
-83 22z"/>
<path d="M4286 3008 c-22 -30 -20 -61 4 -83 26 -23 68 -13 80 20 24 63 -47
116 -84 63z"/>
<path d="M4887 2649 c-66 -39 -271 -57 -335 -30 -71 30 -51 -21 23 -59 56 -29
163 -39 218 -21 41 14 127 86 127 107 0 16 -8 17 -33 3z"/>
<path d="M5343 2562 c-75 -63 -267 -148 -390 -172 -32 -6 -87 -19 -123 -28
-51 -13 -107 -17 -255 -16 -163 1 -202 4 -274 23 -85 22 -171 60 -204 89 -29
26 -37 4 -26 -80 32 -259 223 -412 544 -436 60 -4 139 -4 175 1 115 15 266 87
343 163 23 23 22 37 -3 29 -15 -5 -18 -3 -14 9 8 21 -2 20 -36 -4 l-27 -19 -7
46 c-10 72 -7 191 4 198 6 4 24 10 40 15 27 8 30 6 35 -18 21 -98 51 -160 69
-142 7 7 7 16 -1 29 -11 18 -21 158 -12 164 24 16 112 67 115 67 8 0 -4 -35
-37 -117 -43 -105 -38 -171 6 -91 68 120 120 256 113 297 -3 18 -5 17 -35 -7z
m-1151 -288 c-2 -38 -6 -71 -8 -73 -16 -17 -72 135 -60 164 6 15 9 15 39 -2
32 -19 32 -19 29 -89z m810 15 c3 -30 6 -87 7 -126 l1 -73 -37 -18 c-55 -28
-93 -35 -97 -20 -3 7 -7 70 -11 139 l-6 127 58 15 c32 8 63 14 68 13 6 -2 13
-27 17 -57z m-711 29 l39 -11 0 -107 c0 -59 -3 -110 -7 -113 -8 -8 -47 15 -84
50 -25 23 -27 30 -22 86 8 116 8 115 74 95z m534 -60 c3 -29 5 -93 3 -143 l-3
-90 -60 0 -60 0 0 135 0 135 40 6 c76 12 73 13 80 -43z m-344 20 c11 -18 21
-230 11 -240 -7 -7 -30 -4 -66 6 l-56 17 0 113 c0 62 2 115 5 118 9 9 99 -4
106 -14z m184 -90 c4 -57 5 -119 3 -138 l-3 -35 -55 3 c-30 2 -58 7 -62 10 -5
6 -13 212 -9 250 1 8 20 12 60 12 l59 0 7 -102z"/>
<path d="M3060 3090 c-13 -9 -12 -13 8 -29 12 -11 41 -22 65 -26 23 -4 73 -18
110 -32 38 -14 71 -22 74 -19 10 9 -55 63 -104 87 -52 25 -131 35 -153 19z"/>
<path d="M2350 2822 c-32 -32 -56 -101 -46 -129 6 -15 9 -14 21 13 7 17 35 48
63 70 54 41 63 58 36 68 -29 11 -45 6 -74 -22z"/>
<path d="M3193 2798 c-34 -44 -14 -98 37 -98 50 0 71 66 31 97 -21 16 -56 16
-68 1z"/>
<path d="M2446 2584 c-22 -21 -20 -57 3 -78 26 -24 62 -17 80 15 13 24 13 29
-2 53 -20 30 -57 35 -81 10z"/>
<path d="M3413 2484 c4 -20 15 -47 27 -59 11 -12 20 -25 20 -31 0 -9 -164
-111 -205 -127 -11 -4 -26 -14 -35 -21 -21 -18 -241 -110 -325 -136 -91 -28
-271 -36 -375 -18 l-75 13 3 56 c3 43 -1 60 -16 79 l-20 25 5 -46 c5 -41 2
-50 -27 -82 -28 -33 -38 -37 -78 -37 -46 0 -46 0 -23 -16 17 -12 37 -15 75
-12 l51 6 33 -52 c240 -374 756 -411 948 -69 58 103 100 237 112 358 6 60 10
70 27 73 32 4 73 44 81 77 l7 30 -29 -26 c-16 -15 -40 -29 -53 -32 -37 -9 -86
16 -102 52 -19 42 -33 39 -26 -5z m47 -189 c0 -22 -24 -105 -30 -105 -15 0
-23 79 -10 95 11 14 40 21 40 10z m-82 -84 c17 -55 15 -69 -13 -87 -30 -20
-55 -12 -55 17 0 12 -3 20 -6 16 -3 -3 -3 -20 1 -38 7 -31 8 -31 56 -26 52 6
54 1 21 -50 -19 -30 -28 -29 -36 2 -4 15 -14 25 -25 25 -26 0 -33 -11 -17 -29
7 -9 16 -30 19 -48 5 -27 0 -38 -32 -75 -22 -24 -42 -40 -46 -36 -12 12 -28
82 -27 121 2 43 -18 50 -52 18 -12 -11 -38 -22 -58 -26 -36 -7 -37 -6 -47 32
-17 61 -14 71 26 88 41 18 48 13 59 -42 7 -37 15 -41 34 -18 11 13 10 22 -3
50 -16 33 -16 35 8 54 14 10 25 24 25 29 0 7 11 8 31 2 35 -10 49 -6 49 16 0
11 46 40 71 43 3 1 11 -16 17 -38z m-364 -177 c4 -19 10 -42 12 -49 6 -16 -17
-30 -63 -38 -32 -6 -33 -5 -47 41 -7 26 -11 51 -9 55 7 13 45 26 74 26 23 1
28 -4 33 -35z m-447 -8 c12 -12 31 -76 24 -81 -10 -5 -81 72 -81 88 0 7 49 2
57 -7z m305 -41 c10 -27 15 -51 13 -53 -2 -3 -23 -8 -45 -12 -47 -9 -55 0 -66
68 -6 40 -6 41 27 45 50 6 52 4 71 -48z m-143 -13 c16 -51 9 -61 -40 -55 -32
4 -38 10 -48 43 -17 58 -16 61 32 58 40 -3 43 -5 56 -46z m455 -46 c22 -74 20
-82 -13 -96 -42 -17 -52 -10 -67 41 -19 63 -17 76 14 93 43 24 50 20 66 -38z
m-125 -58 c8 -32 12 -60 8 -64 -3 -3 -26 -9 -51 -11 l-45 -5 -15 53 c-21 69
-21 67 17 78 60 18 71 11 86 -51z m-149 -19 c7 -27 10 -52 8 -55 -8 -7 -108
17 -108 26 0 4 -3 21 -6 38 -7 33 2 39 63 41 29 1 32 -2 43 -50z m-156 25 c15
-39 7 -45 -33 -24 -56 28 -60 40 -13 40 27 0 42 -5 46 -16z"/>
<path d="M3250 2040 c0 -5 5 -10 10 -10 6 0 10 5 10 10 0 6 -4 10 -10 10 -5 0
-10 -4 -10 -10z"/>
<path d="M3053 2344 c-85 -38 -242 -57 -320 -40 -37 9 -42 -2 -14 -28 72 -65
249 -57 339 14 30 25 59 67 51 74 -2 2 -27 -7 -56 -20z"/>
<path d="M7427 4732 c-10 -10 -17 -26 -17 -35 0 -8 -8 -18 -17 -21 -10 -3 -35
-22 -56 -41 -21 -19 -47 -35 -57 -35 -13 0 -18 -5 -13 -15 3 -9 -1 -23 -10
-33 -8 -9 -18 -27 -21 -38 -4 -12 -16 -24 -26 -27 -11 -3 -20 -11 -20 -19 0
-21 -89 -58 -138 -58 -28 0 -42 -4 -42 -13 0 -7 -20 -32 -44 -56 -40 -40 -45
-42 -55 -25 -8 15 -11 16 -12 4 -4 -28 -5 -35 -12 -56 -4 -12 -3 -33 2 -48 7
-17 7 -26 1 -26 -6 0 -10 -17 -10 -37 0 -20 -5 -52 -12 -70 -14 -38 -3 -53 38
-53 12 0 27 -7 34 -15 9 -11 17 -12 32 -4 11 6 27 8 35 5 17 -7 103 30 103 44
0 5 15 12 33 16 25 5 28 8 14 13 -32 12 5 32 65 37 29 3 64 6 78 7 35 3 69 29
88 68 18 36 50 48 140 50 34 0 42 4 42 20 0 10 6 19 13 20 6 0 3 5 -8 10 -16
7 -14 8 10 4 26 -4 33 0 53 31 19 29 26 33 38 23 8 -6 22 -12 32 -13 21 -2 96
-38 100 -48 2 -5 12 -8 22 -8 9 0 34 -7 55 -16 21 -8 43 -13 51 -10 7 3 18 -2
23 -12 5 -9 13 -14 17 -10 9 10 13 153 7 245 -5 66 -7 71 -27 69 -12 -1 -28
-6 -36 -11 -21 -13 -32 -13 -55 2 -11 7 -30 13 -43 13 -13 0 -33 5 -45 12 -21
11 -21 11 -2 19 16 6 13 8 -13 8 -19 1 -49 -6 -68 -15 -37 -18 -64 -8 -64 25
0 9 -7 24 -14 34 -12 15 -18 16 -35 8 -32 -17 -41 -13 -41 20 l0 30 -47 -6
c-46 -7 -47 -6 -26 9 25 18 21 46 -7 46 -9 0 -24 -8 -33 -18z m163 -396 c0
-11 -19 -15 -25 -6 -3 5 1 10 9 10 9 0 16 -2 16 -4z m-660 -255 c0 -6 -4 -13
-10 -16 -5 -3 -10 1 -10 9 0 9 5 16 10 16 6 0 10 -4 10 -9z"/>
<path d="M6430 3746 c0 -3 15 -56 34 -118 46 -151 68 -249 108 -488 18 -103
17 -595 0 -715 -62 -417 -193 -763 -418 -1101 -209 -314 -471 -566 -804 -776
-78 -49 -330 -177 -435 -221 -59 -24 -236 -80 -285 -90 -14 -3 -59 -12 -100
-21 -468 -103 -1024 -79 -1474 65 -107 34 -395 154 -456 190 -8 5 -40 22 -71
38 -31 17 -70 41 -86 55 -17 14 -37 26 -45 26 -8 0 -19 5 -26 12 -9 9 -12 9
-13 -3 -1 -7 -1 -17 0 -21 2 -11 -17 -10 -24 1 -3 5 0 13 7 17 8 5 4 10 -10
15 -16 6 -20 13 -15 26 7 17 6 17 -11 1 -9 -10 -21 -18 -26 -18 -8 0 -142 104
-181 140 -182 171 -227 217 -334 346 -44 52 -155 202 -155 208 0 3 -23 42 -52
88 -54 87 -154 283 -189 371 -39 98 -81 212 -90 245 -5 17 -14 49 -20 70 -20
71 -30 117 -38 173 -10 64 -31 129 -43 129 -5 0 -5 -12 -1 -27 5 -16 7 -47 7
-70 -1 -30 3 -44 15 -48 13 -5 12 -9 -9 -25 -22 -17 -23 -20 -10 -44 10 -20
11 -29 2 -38 -6 -6 -8 -23 -6 -38 3 -15 -1 -47 -9 -71 -14 -40 -14 -45 1 -57
14 -11 15 -15 3 -34 -12 -19 -11 -23 5 -35 16 -12 16 -13 1 -13 -14 0 -16 -6
-11 -25 4 -15 2 -25 -5 -25 -17 0 -13 -21 7 -36 10 -8 12 -13 5 -14 -10 0 -13
-27 -13 -100 0 -91 -8 -121 -24 -87 -4 6 -3 1 1 -13 3 -14 7 -56 8 -95 2 -38
6 -97 10 -130 5 -45 3 -72 -9 -108 -9 -27 -14 -58 -11 -70 3 -12 1 -55 -4 -96
-6 -43 -6 -83 -1 -97 9 -23 -7 -134 -21 -144 -4 -3 -7 -37 -7 -75 1 -104 -5
-185 -14 -185 -4 0 -8 -9 -8 -21 0 -11 -5 -29 -10 -40 -6 -11 -8 -24 -4 -31
12 -19 11 -78 -1 -86 -23 -14 -25 -41 -4 -55 11 -9 17 -20 14 -30 -4 -10 1
-18 16 -22 15 -5 18 -9 9 -15 -9 -5 -9 -9 -1 -14 6 -4 15 -5 20 -1 6 3 15 -4
21 -15 6 -11 17 -20 25 -20 21 0 19 -37 -2 -50 -17 -11 -17 -11 0 -6 12 4 21
-2 29 -19 14 -30 -3 -55 -32 -48 -18 5 -25 -5 -21 -29 1 -8 -41 -16 -99 -20
-26 -2 -38 -9 -45 -26 -9 -21 -15 -23 -47 -18 -21 4 -38 2 -38 -3 0 -5 -10
-12 -23 -14 -12 -2 1428 -5 3201 -6 2064 -1 3222 2 3222 9 0 5 -9 14 -20 20
-11 6 -18 15 -15 20 3 5 -9 18 -26 31 -26 18 -30 27 -25 50 6 29 -8 49 -18 27
-3 -7 -3 -3 0 10 5 22 3 23 -33 18 -21 -3 -30 -3 -20 0 20 6 19 35 -1 42 -7 2
-16 -5 -19 -17 -8 -29 -8 -29 -75 32 -20 19 -34 25 -40 19 -12 -12 -40 -126
-41 -164 0 -23 -2 -25 -14 -12 -8 8 -20 14 -28 14 -7 0 -16 6 -18 13 -3 6 -3
-5 0 -26 5 -31 3 -36 -10 -31 -9 3 -13 12 -10 21 5 13 3 13 -15 4 -30 -16 -72
-14 -72 4 0 19 -56 10 -84 -14 -18 -15 -19 -15 -12 14 13 57 12 60 -15 63 -22
3 -27 -2 -32 -27 -5 -25 -11 -31 -33 -31 -22 0 -24 3 -15 14 9 10 9 16 1 21
-6 4 -8 16 -5 26 10 30 -13 51 -47 44 -23 -6 -29 -3 -37 18 -5 13 -20 27 -33
30 -13 4 -27 16 -33 29 -6 13 -24 26 -42 30 -26 7 -33 14 -33 34 0 13 -7 27
-15 29 -48 15 -50 18 -20 24 25 5 27 8 12 14 -10 4 -27 7 -38 7 -10 0 -19 7
-19 15 0 9 9 15 23 15 21 1 22 1 3 15 -15 12 -22 12 -27 3 -5 -7 -9 -10 -11
-8 -19 30 -30 49 -38 68 -6 13 -19 26 -30 29 -11 3 -20 13 -20 23 0 13 -12 19
-50 24 -52 7 -70 24 -70 65 0 11 -9 25 -20 31 -16 8 -18 8 -14 -4 3 -8 0 -17
-6 -21 -17 -10 -41 15 -35 36 4 13 1 19 -9 19 -16 0 -21 16 -18 53 2 20 -22
19 -24 -1 -1 -7 -2 -16 -3 -22 0 -5 -7 -10 -15 -10 -15 0 -26 30 -26 72 0 20
-4 26 -15 22 -30 -12 -5 37 38 74 15 13 55 59 90 101 34 42 65 78 69 79 5 2 8
10 8 18 0 8 4 14 8 14 7 0 29 31 155 218 20 31 37 60 37 65 0 5 8 21 19 35 10
15 35 60 55 100 21 39 41 72 45 72 4 0 13 10 19 23 8 17 11 18 11 5 1 -26 29
-22 33 5 3 19 10 22 58 25 30 2 58 8 61 14 5 7 19 6 45 -3 22 -8 55 -14 74
-15 19 -1 45 -2 58 -3 12 0 22 -7 22 -16 0 -8 8 -15 19 -15 10 0 25 -9 32 -19
8 -11 29 -22 49 -24 19 -2 27 -2 17 0 -10 3 -16 10 -14 16 7 21 26 18 60 -13
35 -31 36 -31 40 -8 4 20 4 20 6 -4 1 -24 7 -29 59 -44 31 -9 71 -28 88 -41
18 -13 36 -23 40 -21 5 1 19 -2 32 -6 28 -9 23 -32 -7 -29 -27 3 -27 -18 0
-35 16 -10 18 -17 10 -25 -17 -17 -13 -27 14 -37 27 -10 34 -44 13 -54 -10 -5
-10 -7 0 -12 7 -3 12 -24 12 -47 0 -23 5 -49 10 -57 6 -10 4 -20 -6 -31 -11
-12 -13 -26 -6 -55 11 -51 5 -74 -19 -74 -23 0 -24 -4 -2 -36 13 -20 14 -32 5
-60 -11 -35 -6 -74 9 -74 5 0 9 -8 9 -17 -1 -17 -2 -17 -15 1 -22 29 -49 13
-39 -22 5 -15 8 -46 7 -69 0 -37 2 -43 21 -44 15 0 16 -2 6 -6 -8 -4 -21 -15
-28 -25 -7 -10 -17 -16 -22 -13 -5 3 -12 0 -15 -5 -9 -14 23 -50 44 -50 12 -1
11 -5 -6 -19 -13 -11 -23 -24 -23 -29 0 -5 -7 -12 -15 -16 -8 -3 -15 -17 -15
-31 0 -14 7 -28 15 -31 23 -9 18 -29 -10 -42 -38 -17 -30 -32 16 -32 27 0 46
-6 54 -17 13 -18 55 -29 55 -14 0 5 10 7 22 3 18 -4 20 -2 15 19 -10 37 53 94
65 58 2 -6 26 -8 70 -3 66 7 66 7 73 40 4 24 11 34 25 34 10 0 22 -5 26 -11 3
-6 14 7 25 30 10 23 24 40 31 39 8 -2 13 7 13 22 0 18 6 26 21 28 27 4 84 74
84 103 0 12 7 27 16 33 14 10 12 14 -11 26 -18 9 -24 19 -19 29 13 30 16 81 5
81 -19 0 -12 17 10 23 15 4 19 11 15 25 -8 23 3 54 15 46 9 -5 13 15 11 47 -1
9 8 25 18 34 22 20 28 7 8 -13 -10 -10 -10 -15 2 -22 24 -16 30 -12 30 19 0
17 5 33 10 36 6 3 10 17 10 30 0 16 9 28 32 39 51 26 56 22 62 -46 3 -35 8
-79 10 -98 3 -31 -4 598 -9 710 -3 93 -2 90 -39 90 -19 0 -38 -4 -41 -10 -3
-5 1 -10 9 -10 9 0 16 -4 16 -9 0 -11 -35 -21 -75 -21 -16 0 -37 -5 -45 -10
-13 -8 -13 -13 -2 -31 18 -29 4 -40 -15 -11 -19 27 -33 28 -33 2 0 -12 7 -20
18 -21 14 0 14 -1 -3 -8 -11 -4 -47 -5 -80 -2 -49 4 -54 6 -30 11 l30 6 -43
14 c-37 12 -45 12 -52 0 -6 -10 -13 -1 -22 33 -15 56 -30 62 -28 10 3 -52 1
-63 -8 -63 -10 0 -34 89 -27 101 4 5 3 9 -2 9 -14 0 -29 -14 -36 -32 -8 -24
-24 -23 -37 2 -7 14 -7 20 0 20 18 0 10 16 -15 30 -14 7 -25 19 -25 25 0 7 -9
20 -21 31 -17 15 -22 16 -29 4 -14 -23 -21 -5 -10 25 12 31 6 45 -12 27 -17
-17 -28 -15 -28 4 0 22 -19 7 -31 -24 -8 -21 -12 -23 -19 -12 -6 8 -10 23 -10
33 0 11 -9 21 -20 24 -23 6 -27 33 -5 33 19 0 20 19 1 26 -17 7 -40 59 -32 73
10 15 -13 24 -29 11 -23 -19 -47 6 -40 40 5 23 0 33 -33 61 -22 19 -47 52 -56
74 -13 29 -19 36 -26 26 -7 -12 -11 -12 -25 2 -22 22 -37 21 -58 -3 -23 -27
-35 -25 -30 4 4 17 10 22 23 19 10 -3 20 2 24 12 8 21 0 35 -20 35 -17 0 -19
17 -1 23 9 3 9 7 0 17 -16 17 -43 5 -43 -20 0 -27 -22 -35 -60 -21 -47 16
-107 -11 -119 -53 l-8 -31 -8 27 c-9 35 -21 28 -29 -17 -4 -20 -11 -33 -17
-29 -6 3 -6 10 -1 17 30 39 44 492 22 707 -6 58 -15 150 -20 205 -4 55 -16
119 -26 143 -17 42 -17 43 4 72 24 32 28 55 12 65 -7 4 -4 19 10 41 26 45 26
58 0 44 -14 -8 -26 -7 -42 1 -16 9 -23 9 -26 0 -8 -25 -32 -9 -42 29 -6 22
-14 40 -19 40 -4 0 -12 17 -17 38 -5 20 -15 36 -22 35 -6 -2 -14 8 -18 22 -3
14 -10 25 -15 25 -5 0 -9 -2 -9 -4z m177 -281 c2 -46 1 -48 -8 -18 -5 18 -14
35 -19 38 -17 11 -11 37 8 33 13 -2 17 -14 19 -53z m113 -1184 c-5 -11 -10
-30 -10 -42 0 -12 -3 -20 -6 -16 -10 9 5 77 17 77 6 0 6 -7 -1 -19z m568 -889
c2 -7 -3 -12 -12 -12 -9 0 -16 7 -16 16 0 17 22 14 28 -4z m-33 -888 c16 -8
38 -13 48 -10 23 6 47 -2 47 -16 0 -6 -14 -8 -35 -4 -19 3 -51 9 -70 12 -20 4
-35 12 -35 20 0 18 8 18 45 -2z m58 -107 c4 -10 -3 -12 -24 -9 -16 2 -26 8
-23 13 8 14 41 11 47 -4z m-958 -67 c3 -5 1 -10 -4 -10 -6 0 -11 5 -11 10 0 6
2 10 4 10 3 0 8 -4 11 -10z m-5125 -169 c0 -6 -4 -13 -10 -16 -5 -3 -10 1 -10
9 0 9 5 16 10 16 6 0 10 -4 10 -9z m5800 -10 c0 -6 -4 -13 -10 -16 -5 -3 -10
1 -10 9 0 9 5 16 10 16 6 0 10 -4 10 -9z m-320 -31 c0 -5 -5 -10 -11 -10 -5 0
-7 5 -4 10 3 6 8 10 11 10 2 0 4 -4 4 -10z m465 0 c3 -5 -1 -10 -9 -10 -9 0
-16 5 -16 10 0 6 4 10 9 10 6 0 13 -4 16 -10z m-6140 -80 c3 -5 -1 -10 -10
-10 -9 0 -13 5 -10 10 3 6 8 10 10 10 2 0 7 -4 10 -10z m6200 0 c3 -5 -1 -10
-9 -10 -9 0 -16 5 -16 10 0 6 4 10 9 10 6 0 13 -4 16 -10z"/>
<path d="M6690 3605 c-10 -12 -10 -15 4 -15 9 0 16 7 16 15 0 8 -2 15 -4 15
-2 0 -9 -7 -16 -15z"/>
<path d="M6610 3380 c0 -5 5 -10 10 -10 6 0 10 5 10 10 0 6 -4 10 -10 10 -5 0
-10 -4 -10 -10z"/>
<path d="M1171 2974 c0 -11 3 -14 6 -6 3 7 2 16 -1 19 -3 4 -6 -2 -5 -13z"/>
<path d="M6842 2498 c-16 -16 -15 -28 2 -28 16 0 29 27 17 34 -4 3 -13 0 -19
-6z"/>
<path d="M6815 2409 c-10 -15 3 -25 16 -12 7 7 7 13 1 17 -6 3 -14 1 -17 -5z"/>
<path d="M6680 2375 c0 -9 6 -12 15 -9 8 4 15 10 15 15 0 5 -7 9 -15 9 -8 0
-15 -7 -15 -15z"/>
<path d="M8001 2134 c0 -11 3 -14 6 -6 3 7 2 16 -1 19 -3 4 -6 -2 -5 -13z"/>
<path d="M8001 2044 c0 -11 3 -14 6 -6 3 7 2 16 -1 19 -3 4 -6 -2 -5 -13z"/>
<path d="M7955 1880 c-3 -5 8 -16 25 -25 36 -18 39 -7 5 18 -14 10 -26 13 -30
7z"/>
<path d="M7711 1704 c0 -11 3 -14 6 -6 3 7 2 16 -1 19 -3 4 -6 -2 -5 -13z"/>
<path d="M7940 1130 c0 -5 7 -10 16 -10 8 0 12 5 9 10 -3 6 -10 10 -16 10 -5
0 -9 -4 -9 -10z"/>
<path d="M8003 880 c0 -41 2 -58 4 -37 2 20 2 54 0 75 -2 20 -4 3 -4 -38z"/>
<path d="M2270 640 c0 -5 5 -10 10 -10 6 0 10 5 10 10 0 6 -4 10 -10 10 -5 0
-10 -4 -10 -10z"/>
<path d="M7190 270 c0 -24 6 -25 26 -6 19 20 18 26 -6 26 -13 0 -20 -7 -20
-20z"/>
<path d="M7260 155 c0 -8 7 -15 15 -15 8 0 15 7 15 15 0 8 -7 15 -15 15 -8 0
-15 -7 -15 -15z"/>
<path d="M7325 10 c-3 -5 1 -10 9 -10 8 0 18 5 21 10 3 6 -1 10 -9 10 -8 0
-18 -4 -21 -10z"/>
<path d="M578 3 c7 -3 16 -2 19 1 4 3 -2 6 -13 5 -11 0 -14 -3 -6 -6z"/>
<path d="M648 3 c6 -2 18 -2 25 0 6 3 1 5 -13 5 -14 0 -19 -2 -12 -5z"/>
<path d="M738 3 c7 -3 16 -2 19 1 4 3 -2 6 -13 5 -11 0 -14 -3 -6 -6z"/>
<path d="M798 3 c7 -3 16 -2 19 1 4 3 -2 6 -13 5 -11 0 -14 -3 -6 -6z"/>
</g>
</svg>
